<?xml version="1.0" encoding="UTF-8"?>
<svg xmlns="http://www.w3.org/2000/svg" viewBox="0 0 500 650" width="1000" height="1000">
  <defs>
    <filter id="shadow" x="-20%" y="-20%" width="140%" height="140%">
      <feGaussianBlur in="SourceAlpha" stdDeviation="2" />
      <feOffset dx="1" dy="1" result="offsetblur" />
      <feComponentTransfer>
        <feFuncA type="linear" slope="0.3" />
      </feComponentTransfer>
      <feMerge>
        <feMergeNode />
        <feMergeNode in="SourceGraphic" />
      </feMerge>
    </filter>
  </defs>
  <!-- Background -->
  <rect x="0" y="0" width="500" height="650" fill="#ffffff" />
  <defs><clipPath id="clip-128-1772648375406"><path d="M 128 630 L 128 20 L 250 20 L 372 142 L 372 630 Z" /></clipPath></defs>
  <path d="M 128 630 L 128 20 L 250 20 L 372 142 L 372 630 Z" fill="#f5f5f4" stroke="#292524" stroke-width="2.44" filter="url(#shadow)" />
  <path d="M 155.45 426.87 L 344.54999999999995 426.87 L 344.54999999999995 399.42 L 155.45 399.42 Z" fill="#f5f5f4" stroke="#52525b" stroke-width="0.61" clip-path="url(#clip-128-1772648375406)" />
  <path d="M 155.45 223.435 L 344.54999999999995 223.435 L 344.54999999999995 195.98499999999999 L 155.45 195.98499999999999 Z" fill="#f5f5f4" stroke="#52525b" stroke-width="0.61" clip-path="url(#clip-128-1772648375406)" />
  <path d="M 155.45 602.55 L 155.45 426.87 L 344.54999999999995 426.87 L 344.54999999999995 602.55 Z" fill="#d6d3d1" stroke="#a8a29e" stroke-width="0.61" clip-path="url(#clip-128-1772648375406)" />
  <path d="M 155.45 399.42 L 155.45 223.435 L 344.54999999999995 223.435 L 344.54999999999995 399.42 Z" fill="#d6d3d1" stroke="#a8a29e" stroke-width="0.61" clip-path="url(#clip-128-1772648375406)" />
  <path d="M 155.45 195.98499999999999 L 155.45 153.37016228714148 L 155.45 47.45 L 238.62983771285855 47.45 L 344.54999999999995 153.37016228714148 L 344.54999999999995 195.98499999999999 Z" fill="#d6d3d1" stroke="#a8a29e" stroke-width="0.61" clip-path="url(#clip-128-1772648375406)" />
</svg>