0
SECTION
2
HEADER
9
$ACADVER
1
AC1021
9
$LASTSAVEDBY
1
@tarikjabiri/dxf
9
$HANDSEED
5
56
9
$INSUNITS
70
0
9
$CLAYER
8
0
9
$VIEWCTR
10
230
20
366
0
ENDSEC
0
SECTION
2
CLASSES
0
ENDSEC
0
SECTION
2
TABLES
0
TABLE
2
VPORT
5
1
330
0
100
AcDbSymbolTable
70
1
0
VPORT
5
19
330
1
100
AcDbSymbolTableRecord
100
AcDbViewportTableRecord
2
*Active
70
0
10
0
20
0
11
1
21
1
12
230
22
366
13
0
23
0
14
10
24
10
15
10
25
10
16
0
26
0
36
1
17
0
27
0
37
0
40
1212
41
2
42
50
43
0
44
0
50
0
51
0
71
0
72
100
73
1
74
3
75
0
76
1
77
0
78
0
281
0
65
1
110
0
120
0
130
0
111
1
121
0
131
0
112
0
122
1
132
0
79
0
146
0
348
10020
60
7
61
5
292
1
282
1
141
0
142
0
63
250
421
3358443
0
ENDTAB
0
TABLE
2
LTYPE
5
2
330
0
100
AcDbSymbolTable
70
3
0
LTYPE
5
12
330
2
100
AcDbSymbolTableRecord
100
AcDbLinetypeTableRecord
2
ByBlock
70
0
3

72
65
73
0
40
0
0
LTYPE
5
13
330
2
100
AcDbSymbolTableRecord
100
AcDbLinetypeTableRecord
2
ByLayer
70
0
3

72
65
73
0
40
0
0
LTYPE
5
14
330
2
100
AcDbSymbolTableRecord
100
AcDbLinetypeTableRecord
2
Continuous
70
0
3
Solid line
72
65
73
0
40
0
0
ENDTAB
0
TABLE
2
LAYER
5
3
330
0
100
AcDbSymbolTable
70
17
0
LAYER
5
15
330
3
100
AcDbSymbolTableRecord
100
AcDbLayerTableRecord
2
0
70
0
62
7
6
Continuous
370
0
390
0
0
LAYER
5
1A
330
3
100
AcDbSymbolTableRecord
100
AcDbLayerTableRecord
2
T1_DRILL_V4
70
0
62
3
6
Continuous
370
0
390
0
0
LAYER
5
1B
330
3
100
AcDbSymbolTableRecord
100
AcDbLayerTableRecord
2
T8_DRILL_35MM
70
0
62
3
6
Continuous
370
0
390
0
0
LAYER
5
1C
330
3
100
AcDbSymbolTableRecord
100
AcDbLayerTableRecord
2
T6_REBATE_12MM
70
0
62
1
6
Continuous
370
0
390
0
0
LAYER
5
1D
330
3
100
AcDbSymbolTableRecord
100
AcDbLayerTableRecord
2
T6_INNER_ONION
70
0
62
1
6
Continuous
370
0
390
0
0
LAYER
5
1E
330
3
100
AcDbSymbolTableRecord
100
AcDbLayerTableRecord
2
T4_PROFILE_8MM_OS
70
0
62
5
6
Continuous
370
0
390
0
0
LAYER
5
1F
330
3
100
AcDbSymbolTableRecord
100
AcDbLayerTableRecord
2
T4_PROFILE_8MM_FINAL
70
0
62
5
6
Continuous
370
0
390
0
0
LAYER
5
20
330
3
100
AcDbSymbolTableRecord
100
AcDbLayerTableRecord
2
T3_REBATE_FINISH
70
0
62
6
6
Continuous
370
0
390
0
0
LAYER
5
21
330
3
100
AcDbSymbolTableRecord
100
AcDbLayerTableRecord
2
T3_INNER_BREAK
70
0
62
6
6
Continuous
370
0
390
0
0
LAYER
5
22
330
3
100
AcDbSymbolTableRecord
100
AcDbLayerTableRecord
2
PANEL_GEOMETRY
70
0
62
2
6
Continuous
370
0
390
0
0
LAYER
5
23
330
3
100
AcDbSymbolTableRecord
100
AcDbLayerTableRecord
2
DIMENSIONS
70
0
62
7
6
Continuous
370
0
390
0
0
LAYER
5
24
330
3
100
AcDbSymbolTableRecord
100
AcDbLayerTableRecord
2
SECTION_Graphics
70
0
62
7
6
Continuous
370
0
390
0
0
LAYER
5
25
330
3
100
AcDbSymbolTableRecord
100
AcDbLayerTableRecord
2
HINGES
70
0
62
7
6
Continuous
370
0
390
0
0
LAYER
5
26
330
3
100
AcDbSymbolTableRecord
100
AcDbLayerTableRecord
2
FRAME
70
0
62
7
6
Continuous
370
0
390
0
0
LAYER
5
27
330
3
100
AcDbSymbolTableRecord
100
AcDbLayerTableRecord
2
BORDERS
70
0
62
4
6
Continuous
370
0
390
0
0
LAYER
5
28
330
3
100
AcDbSymbolTableRecord
100
AcDbLayerTableRecord
2
PANELS
70
0
62
2
6
Continuous
370
0
390
0
0
LAYER
5
29
330
3
100
AcDbSymbolTableRecord
100
AcDbLayerTableRecord
2
MIDRAILS
70
0
62
4
6
Continuous
370
0
390
0
0
ENDTAB
0
TABLE
2
STYLE
5
4
330
0
100
AcDbSymbolTable
70
1
0
STYLE
5
16
330
4
100
AcDbSymbolTableRecord
100
AcDbTextStyleTableRecord
2
Standard
70
0
40
0
41
1
50
0
71
0
42
1
3
txt
4

0
ENDTAB
0
TABLE
2
VIEW
5
5
330
0
100
AcDbSymbolTable
70
0
0
ENDTAB
0
TABLE
2
UCS
5
6
330
0
100
AcDbSymbolTable
70
0
0
ENDTAB
0
TABLE
2
APPID
5
7
330
0
100
AcDbSymbolTable
70
1
0
APPID
5
17
330
7
100
AcDbSymbolTableRecord
100
AcDbRegAppTableRecord
2
ACAD
70
0
0
ENDTAB
0
TABLE
2
DIMSTYLE
5
8
330
0
100
AcDbSymbolTable
70
1
100
AcDbDimStyleTable
0
DIMSTYLE
105
18
330
8
100
AcDbSymbolTableRecord
100
AcDbDimStyleTableRecord
2
Standard
70
0
340
16
0
ENDTAB
0
TABLE
2
BLOCK_RECORD
5
9
330
0
100
AcDbSymbolTable
70
2
0
BLOCK_RECORD
5
C
330
9
100
AcDbSymbolTableRecord
100
AcDbBlockTableRecord
2
*Model_Space
70
0
280
1
281
0
0
BLOCK_RECORD
5
F
330
9
100
AcDbSymbolTableRecord
100
AcDbBlockTableRecord
2
*Paper_Space
70
0
280
1
281
0
0
ENDTAB
0
ENDSEC
0
SECTION
2
BLOCKS
0
BLOCK
5
D
330
C
100
AcDbEntity
8
0
100
AcDbBlockBegin
2
*Model_Space
70
0
10
0
20
0
30
0
3
*Model_Space
1

0
ENDBLK
5
E
100
AcDbEntity
8
0
100
AcDbBlockEnd
0
BLOCK
5
10
330
F
100
AcDbEntity
8
0
100
AcDbBlockBegin
2
*Paper_Space
70
0
10
0
20
0
30
0
3
*Paper_Space
1

0
ENDBLK
5
11
100
AcDbEntity
8
0
100
AcDbBlockEnd
0
ENDSEC
0
SECTION
2
ENTITIES
0
LWPOLYLINE
5
2A
330
C
100
AcDbEntity
8
T4_PROFILE_8MM_OS
100
AcDbPolyline
90
4
70
1
43
0
38
0
39
0
10
0
20
0
10
400
20
0
10
400
20
600
10
0
20
600
0
LWPOLYLINE
5
2B
330
C
100
AcDbEntity
8
T4_PROFILE_8MM_FINAL
100
AcDbPolyline
90
4
70
1
43
0
38
0
39
0
10
0
20
0
10
400
20
0
10
400
20
600
10
0
20
600
0
LWPOLYLINE
5
2C
330
C
100
AcDbEntity
8
T6_INNER_ONION
100
AcDbPolyline
90
4
70
1
43
0
38
0
39
0
10
75
20
75
10
75
20
525
10
325
20
525
10
325
20
75
0
LWPOLYLINE
5
2D
330
C
100
AcDbEntity
8
T3_INNER_BREAK
100
AcDbPolyline
90
4
70
1
43
0
38
0
39
0
10
75
20
75
10
75
20
525
10
325
20
525
10
325
20
75
0
LWPOLYLINE
5
2E
330
C
100
AcDbEntity
8
T6_REBATE_12MM
100
AcDbPolyline
90
4
70
1
43
0
38
0
39
0
10
65
20
65
10
65
20
535
10
335
20
535
10
335
20
65
0
LWPOLYLINE
5
2F
330
C
100
AcDbEntity
8
T3_REBATE_FINISH
100
AcDbPolyline
90
4
70
1
43
0
38
0
39
0
10
65
20
65
10
65
20
535
10
335
20
535
10
335
20
65
0
LWPOLYLINE
5
30
330
C
100
AcDbEntity
8
PANEL_GEOMETRY
100
AcDbPolyline
90
4
70
1
43
0
38
0
39
0
10
85
20
85
10
85
20
515
10
315
20
515
10
315
20
85
0
LINE
5
31
330
C
100
AcDbEntity
8
DIMENSIONS
100
AcDbLine
10
0
20
-100
30
0
11
400
21
-100
31
0
0
TEXT
5
32
330
C
100
AcDbEntity
8
DIMENSIONS
100
AcDbText
10
200
20
-140
30
0
40
20
1
400mm
7
STANDARD
100
AcDbText
0
LINE
5
33
330
C
100
AcDbEntity
8
DIMENSIONS
100
AcDbLine
10
-100
20
0
30
0
11
-100
21
600
31
0
0
TEXT
5
34
330
C
100
AcDbEntity
8
DIMENSIONS
100
AcDbText
10
-140
20
300
30
0
40
20
1
600mm
50
90
7
STANDARD
100
AcDbText
0
TEXT
5
35
330
C
100
AcDbEntity
8
DIMENSIONS
100
AcDbText
10
150
20
550
30
0
40
15
1
Top Rail: 75mm
7
STANDARD
100
AcDbText
0
TEXT
5
36
330
C
100
AcDbEntity
8
DIMENSIONS
100
AcDbText
10
150
20
50
30
0
40
15
1
Bottom Rail: 75mm
7
STANDARD
100
AcDbText
0
TEXT
5
37
330
C
100
AcDbEntity
8
DIMENSIONS
100
AcDbText
10
25
20
300
30
0
40
15
1
Stile: 75mm
50
90
7
STANDARD
100
AcDbText
0
TEXT
5
38
330
C
100
AcDbEntity
8
DIMENSIONS
100
AcDbText
10
350
20
300
30
0
40
15
1
Stile: 75mm
50
90
7
STANDARD
100
AcDbText
0
LWPOLYLINE
5
39
330
C
100
AcDbEntity
8
FRAME
100
AcDbPolyline
90
4
70
1
43
0
38
0
39
0
10
600
20
0
10
622
20
0
10
622
20
600
10
600
20
600
0
LINE
5
3A
330
C
100
AcDbEntity
8
BORDERS
100
AcDbLine
10
600
20
75
30
0
11
622
21
75
31
0
0
LINE
5
3B
330
C
100
AcDbEntity
8
BORDERS
100
AcDbLine
10
600
20
525
30
0
11
622
21
525
31
0
0
LWPOLYLINE
5
3C
330
C
100
AcDbEntity
8
PANELS
100
AcDbPolyline
90
4
70
1
43
0
38
0
39
0
10
608
20
75
10
620
20
75
10
620
20
525
10
608
20
525
0
TEXT
5
3D
330
C
100
AcDbEntity
8
DIMENSIONS
100
AcDbText
10
596
20
-50
30
0
40
20
1
SIDE VIEW
7
STANDARD
100
AcDbText
0
TEXT
5
3E
330
C
100
AcDbEntity
8
DIMENSIONS
100
AcDbText
10
600
20
-80
30
0
40
15
1
Thk: 22mm
7
STANDARD
100
AcDbText
0
LWPOLYLINE
5
3F
330
C
100
AcDbEntity
8
FRAME
100
AcDbPolyline
90
4
70
1
43
0
38
0
39
0
10
0
20
800
10
400
20
800
10
400
20
822
10
0
20
822
0
LINE
5
40
330
C
100
AcDbEntity
8
BORDERS
100
AcDbLine
10
75
20
800
30
0
11
75
21
822
31
0
0
LINE
5
41
330
C
100
AcDbEntity
8
BORDERS
100
AcDbLine
10
325
20
800
30
0
11
325
21
822
31
0
0
LWPOLYLINE
5
42
330
C
100
AcDbEntity
8
PANELS
100
AcDbPolyline
90
4
70
1
43
0
38
0
39
0
10
75
20
808
10
325
20
808
10
325
20
820
10
75
20
820
0
LINE
5
43
330
C
100
AcDbEntity
8
BORDERS
100
AcDbLine
10
10
20
822
30
0
11
10
21
808
31
0
0
LINE
5
44
330
C
100
AcDbEntity
8
BORDERS
100
AcDbLine
10
0
20
808
30
0
11
10
21
808
31
0
0
LINE
5
45
330
C
100
AcDbEntity
8
BORDERS
100
AcDbLine
10
390
20
822
30
0
11
390
21
808
31
0
0
LINE
5
46
330
C
100
AcDbEntity
8
BORDERS
100
AcDbLine
10
400
20
808
30
0
11
390
21
808
31
0
0
TEXT
5
47
330
C
100
AcDbEntity
8
DIMENSIONS
100
AcDbText
10
185
20
872
30
0
40
20
1
TOP VIEW
7
STANDARD
100
AcDbText
0
TEXT
5
48
330
C
100
AcDbEntity
8
DIMENSIONS
100
AcDbText
10
27.5
20
770
30
0
40
12
1
Stile: 75
7
STANDARD
100
AcDbText
0
TEXT
5
49
330
C
100
AcDbEntity
8
DIMENSIONS
100
AcDbText
10
342.5
20
770
30
0
40
12
1
Stile: 75
7
STANDARD
100
AcDbText
0
TEXT
5
4A
330
C
100
AcDbEntity
8
DIMENSIONS
100
AcDbText
10
600
20
480
30
0
40
22
1
DOOR SPECIFICATION
7
STANDARD
100
AcDbText
0
TEXT
5
4B
330
C
100
AcDbEntity
8
DIMENSIONS
100
AcDbText
10
600
20
440
30
0
40
16
1
Material: MR MDF
7
STANDARD
100
AcDbText
0
TEXT
5
4C
330
C
100
AcDbEntity
8
DIMENSIONS
100
AcDbText
10
600
20
400
30
0
40
16
1
Finish: RAW_UNASSEMBLED
7
STANDARD
100
AcDbText
0
TEXT
5
4D
330
C
100
AcDbEntity
8
DIMENSIONS
100
AcDbText
10
600
20
360
30
0
40
16
1
Width: 400mm
7
STANDARD
100
AcDbText
0
TEXT
5
4E
330
C
100
AcDbEntity
8
DIMENSIONS
100
AcDbText
10
600
20
320
30
0
40
16
1
Height: 600mm
7
STANDARD
100
AcDbText
0
TEXT
5
4F
330
C
100
AcDbEntity
8
DIMENSIONS
100
AcDbText
10
600
20
280
30
0
40
16
1
Thickness: 22mm
7
STANDARD
100
AcDbText
0
TEXT
5
50
330
C
100
AcDbEntity
8
DIMENSIONS
100
AcDbText
10
600
20
240
30
0
40
16
1
Shape: RECTANGULAR
7
STANDARD
100
AcDbText
0
TEXT
5
51
330
C
100
AcDbEntity
8
DIMENSIONS
100
AcDbText
10
600
20
200
30
0
40
16
1
Panel: STANDARD_12MM
7
STANDARD
100
AcDbText
0
TEXT
5
52
330
C
100
AcDbEntity
8
DIMENSIONS
100
AcDbText
10
600
20
160
30
0
40
16
1
L-Stile: 75mm  R-Stile: 75mm
7
STANDARD
100
AcDbText
0
TEXT
5
53
330
C
100
AcDbEntity
8
DIMENSIONS
100
AcDbText
10
600
20
120
30
0
40
16
1
T-Rail: 75mm  B-Rail: 75mm
7
STANDARD
100
AcDbText
0
TEXT
5
54
330
C
100
AcDbEntity
8
DIMENSIONS
100
AcDbText
10
600
20
80
30
0
40
16
1
Rebate: 10w x 14d mm
7
STANDARD
100
AcDbText
0
TEXT
5
55
330
C
100
AcDbEntity
8
DIMENSIONS
100
AcDbText
10
600
20
40
30
0
40
16
1
Front Face: 8mm
7
STANDARD
100
AcDbText
0
ENDSEC
0
SECTION
2
OBJECTS
0
DICTIONARY
5
A
330
0
100
AcDbDictionary
281
1
3
ACAD_GROUP
350
B
0
DICTIONARY
5
B
330
A
100
AcDbDictionary
281
0
0
ENDSEC
0
EOF